<?xml version="1.0" encoding="UTF-8"?>
<!DOCTYPE svg PUBLIC "-//W3C//DTD SVG 1.1//EN" "http://www.w3.org/Graphics/SVG/1.1/DTD/svg11.dtd">
<svg version="1.1" xmlns="http://www.w3.org/2000/svg" xmlns:xlink="http://www.w3.org/1999/xlink" width="95" height="95"  xml:space="preserve" id="marginalen">
    <!-- Generated by PaintCode - http://www.paintcodeapp.com -->

    <!-- This code was generated by Trial version of PaintCode, therefore cannot be used for commercial purposes. -->

    <g id="marginalen-group" transform="translate(51.34, 50.42)" >
        <g id="marginalen-group2" transform="translate(-3.5, -1)" >
            <path id="marginalen-bezier" stroke="none" fill="rgb(250, 0, 50)" d="M -6.56,-47.38 C -12.95,-47.38 -19.28,-46.09 -25.16,-43.59 -31.04,-41.08 -36.35,-37.42 -40.77,-32.81 L -40.77,32.86 C -35.34,38.5 -28.6,42.71 -21.15,45.1 -13.69,47.5 -5.76,48.02 1.94,46.6 9.64,45.19 16.87,41.89 22.99,37 29.1,32.11 33.91,25.78 36.98,18.58 40.05,11.38 41.29,3.53 40.58,-4.27 39.88,-12.06 37.25,-19.56 32.94,-26.1 28.62,-32.63 22.76,-37.99 15.87,-41.71 8.97,-45.42 1.27,-47.37 -6.56,-47.38 Z M -6.56,-47.38" transform="translate(6.27, -1.85) rotate(2520.06)"  />
            <path id="marginalen-bezier2" opacity="0" stroke="none" fill="rgb(250, 0, 50)" d="M -1.38,-46.69 C -7.76,-46.69 -14.07,-45.4 -19.94,-42.89 -25.81,-40.38 -31.11,-36.71 -35.52,-32.09 L -35.52,33.7 C -30.1,39.35 -23.37,43.57 -15.94,45.97 -8.5,48.37 -0.58,48.89 7.1,47.47 14.79,46.05 22,42.75 28.11,37.85 34.21,32.95 39,26.61 42.07,19.39 45.13,12.18 46.37,4.32 45.66,-3.5 44.96,-11.31 42.34,-18.82 38.03,-25.37 33.73,-31.91 27.88,-37.29 21,-41.01 14.12,-44.73 6.43,-46.68 -1.38,-46.69 Z M -1.38,-46.69" transform="rotate(452.9)"  />
        </g>
    </g>
</svg>
