<svg width="205" height="22" viewBox="0 0 205 22" fill="none" xmlns="http://www.w3.org/2000/svg">
<g clip-path="url(#clip0_21_1249)">
<path d="M30.8964 18.0222L27.2195 7.16607V18.0222H24.8911V3.98071H28.3319L31.9506 14.7366L35.5693 3.98071H38.9326V18.0222H36.6042V7.16607L32.9305 18.0222H30.8964Z" fill="white"/>
<path d="M44.4851 12.6249H48.9026L46.6745 6.75866L44.4851 12.6249ZM48.1394 3.98401L53.4591 18.0255H50.9367L49.724 14.8175H43.6637L42.4704 18.0255H39.9868L45.3033 3.98401H48.1394Z" fill="white"/>
<path d="M59.9783 10.4517C61.7764 10.4517 62.7336 9.66915 62.7336 8.29799C62.7336 6.92683 61.7634 6.14747 59.9783 6.14747H57.0064V10.4517H59.9783ZM57.0064 18.0384H54.5034V3.98401H60.1303C63.2607 3.98401 65.214 5.45218 65.214 8.28505C65.214 10.497 64.0045 11.9037 61.951 12.3921L65.5664 18.0255H62.711L59.2734 12.5861H57.0097L57.0064 18.0384Z" fill="white"/>
<path d="M76.1642 16.5736C75.5983 17.5146 74.2239 18.2358 72.3903 18.2358C68.7522 18.2358 66.0552 15.3027 66.0552 11.0598C66.0552 6.81699 68.7716 3.76746 72.5455 3.76746C75.4204 3.76746 77.3575 5.31001 78.2177 7.79362L75.8311 8.59562C75.4204 6.93341 74.2498 5.97619 72.5649 5.97619C70.201 5.97619 68.5582 7.99089 68.5582 11.021C68.5582 14.0512 70.201 16.0853 72.607 16.0853C74.6378 16.0853 75.9702 14.6397 76.0478 12.6444H72.3515V10.4519H78.4538V18.0191H76.1642V16.5736Z" fill="white"/>
<path d="M83.1749 3.98071H80.6719V18.0222H83.1749V3.98071Z" fill="white"/>
<path d="M96.9934 18.0222H94.8041L87.8415 7.71583V18.0222H85.4355V3.98071H88.0162L94.5874 13.8149V3.98071H96.9934V18.0222Z" fill="white"/>
<path d="M102.536 12.6249H106.954L104.726 6.75866L102.536 12.6249ZM106.191 3.98401L111.51 18.0255H108.988L107.775 14.8175H101.715L100.522 18.0255H98.0381L103.358 3.98401H106.191Z" fill="white"/>
<path d="M112.552 3.98071H115.055V15.8296H121.665V18.0222H112.552V3.98071Z" fill="white"/>
<path d="M132.246 3.98071V6.17004H125.205V9.68849H131.13V11.8811H125.205V15.8296H132.246V18.0222H122.741V3.98071H132.246Z" fill="white"/>
<path d="M145.492 18.0222H143.303L136.34 7.71583V18.0222H133.934V3.98071H136.515L143.086 13.8149V3.98071H145.492V18.0222Z" fill="white"/>
<path d="M155.885 15.9105H159.268C160.853 15.9105 161.713 15.0891 161.713 13.8958C161.713 12.7025 160.853 11.9005 159.268 11.9005H155.885V15.9105ZM158.819 9.80497C160.436 9.80497 161.302 9.1776 161.302 7.9455C161.302 6.71339 160.423 6.10866 158.819 6.10866H155.885V9.80497H158.819ZM153.479 3.98401H159.055C162.065 3.98401 163.669 5.27755 163.669 7.68032C163.702 8.33179 163.526 8.9766 163.167 9.52137C162.808 10.0661 162.285 10.4826 161.674 10.7104C162.403 10.9234 163.039 11.374 163.482 11.9905C163.925 12.607 164.149 13.3539 164.119 14.1125C164.119 16.5767 162.301 18.0255 159.407 18.0255H153.479V3.98401Z" fill="white"/>
<path d="M168.73 12.6249H173.148L170.92 6.75866L168.73 12.6249ZM172.385 3.98401L177.704 18.0255H175.182L173.963 14.8142H167.909L166.716 18.0222H164.232L169.548 3.98401H172.385Z" fill="white"/>
<path d="M190.303 18.0222H188.114L181.152 7.71583V18.0222H178.746V3.98071H181.329L187.898 13.8149V3.98071H190.303V18.0222Z" fill="white"/>
<path d="M195.145 10.6295L200.972 3.98071H203.925L198.469 10.0604L204.238 18.0222H201.282L196.846 11.9005L195.145 13.7761V18.0222H192.642V3.98071H195.145V10.6295Z" fill="white"/>
<path d="M7.93591 2.32584e-07C6.4534 -0.000304683 4.98614 0.299201 3.62235 0.880506C2.25857 1.46181 1.02642 2.31291 0 3.38263V18.6206C1.25972 19.9292 2.82401 20.9053 4.55307 21.4617C6.28214 22.0181 8.12212 22.1375 9.90859 21.8092C11.6951 21.4809 13.3724 20.7151 14.7906 19.5803C16.2089 18.4455 17.3239 16.9769 18.036 15.306C18.7482 13.635 19.0353 11.8137 18.8717 10.0047C18.708 8.19565 18.0988 6.45536 17.0984 4.93931C16.0979 3.42325 14.7375 2.17865 13.1387 1.31673C11.5398 0.454818 9.7523 0.0024292 7.93591 2.32584e-07" fill="#FA0032"/>
</g>
<defs>
<clipPath id="clip0_21_1249">
<rect width="204.238" height="22" fill="white"/>
</clipPath>
</defs>
</svg>
