<svg width="205" height="44" viewBox="0 0 205 44" fill="none" xmlns="http://www.w3.org/2000/svg">
<g clip-path="url(#clip0_21_1248)">
<g clip-path="url(#clip1_21_1248)">
<path d="M30.8964 29.0222L27.2195 18.1661V29.0222H24.8911V14.9807H28.3319L31.9506 25.7366L35.5693 14.9807H38.9326V29.0222H36.6042V18.1661L32.9305 29.0222H30.8964Z" fill="#0A0A0A"/>
<path d="M44.4851 23.6249H48.9026L46.6745 17.7587L44.4851 23.6249ZM48.1394 14.984L53.4591 29.0255H50.9367L49.724 25.8175H43.6637L42.4704 29.0255H39.9868L45.3033 14.984H48.1394Z" fill="#0A0A0A"/>
<path d="M59.9783 21.4517C61.7764 21.4517 62.7336 20.6691 62.7336 19.298C62.7336 17.9268 61.7634 17.1475 59.9783 17.1475H57.0064V21.4517H59.9783ZM57.0064 29.0384H54.5034V14.984H60.1303C63.2607 14.984 65.214 16.4522 65.214 19.285C65.214 21.497 64.0045 22.9037 61.951 23.3921L65.5664 29.0255H62.711L59.2734 23.5861H57.0097L57.0064 29.0384Z" fill="#0A0A0A"/>
<path d="M76.1642 27.5736C75.5983 28.5146 74.2239 29.2358 72.3903 29.2358C68.7522 29.2358 66.0552 26.3027 66.0552 22.0598C66.0552 17.817 68.7716 14.7675 72.5455 14.7675C75.4204 14.7675 77.3575 16.31 78.2177 18.7936L75.8311 19.5956C75.4204 17.9334 74.2498 16.9762 72.5649 16.9762C70.201 16.9762 68.5582 18.9909 68.5582 22.021C68.5582 25.0512 70.201 27.0853 72.607 27.0853C74.6378 27.0853 75.9702 25.6397 76.0478 23.6444H72.3515V21.4519H78.4538V29.0191H76.1642V27.5736Z" fill="#0A0A0A"/>
<path d="M83.1749 14.9807H80.6719V29.0222H83.1749V14.9807Z" fill="#0A0A0A"/>
<path d="M96.9934 29.0222H94.8041L87.8415 18.7158V29.0222H85.4355V14.9807H88.0162L94.5874 24.8149V14.9807H96.9934V29.0222Z" fill="#0A0A0A"/>
<path d="M102.536 23.6249H106.954L104.726 17.7587L102.536 23.6249ZM106.191 14.984L111.51 29.0255H108.988L107.775 25.8175H101.715L100.522 29.0255H98.0381L103.358 14.984H106.191Z" fill="#0A0A0A"/>
<path d="M112.552 14.9807H115.055V26.8296H121.665V29.0222H112.552V14.9807Z" fill="#0A0A0A"/>
<path d="M132.246 14.9807V17.17H125.205V20.6885H131.13V22.8811H125.205V26.8296H132.246V29.0222H122.741V14.9807H132.246Z" fill="#0A0A0A"/>
<path d="M145.492 29.0222H143.303L136.34 18.7158V29.0222H133.934V14.9807H136.515L143.086 24.8149V14.9807H145.492V29.0222Z" fill="#0A0A0A"/>
<path d="M155.885 26.9105H159.268C160.853 26.9105 161.713 26.0891 161.713 24.8958C161.713 23.7025 160.853 22.9005 159.268 22.9005H155.885V26.9105ZM158.819 20.805C160.436 20.805 161.302 20.1776 161.302 18.9455C161.302 17.7134 160.423 17.1087 158.819 17.1087H155.885V20.805H158.819ZM153.479 14.984H159.055C162.065 14.984 163.669 16.2776 163.669 18.6803C163.702 19.3318 163.526 19.9766 163.167 20.5214C162.808 21.0661 162.285 21.4826 161.674 21.7104C162.403 21.9234 163.039 22.374 163.482 22.9905C163.925 23.607 164.149 24.3539 164.119 25.1125C164.119 27.5767 162.301 29.0255 159.407 29.0255H153.479V14.984Z" fill="#0A0A0A"/>
<path d="M168.73 23.6249H173.148L170.92 17.7587L168.73 23.6249ZM172.385 14.984L177.704 29.0255H175.182L173.963 25.8142H167.909L166.716 29.0222H164.232L169.548 14.984H172.385Z" fill="#0A0A0A"/>
<path d="M190.303 29.0222H188.114L181.152 18.7158V29.0222H178.746V14.9807H181.329L187.898 24.8149V14.9807H190.303V29.0222Z" fill="#0A0A0A"/>
<path d="M195.145 21.6295L200.972 14.9807H203.925L198.469 21.0604L204.238 29.0222H201.282L196.846 22.9005L195.145 24.7761V29.0222H192.642V14.9807H195.145V21.6295Z" fill="#0A0A0A"/>
<path d="M7.93591 11C6.4534 10.9997 4.98614 11.2992 3.62235 11.8805C2.25857 12.4618 1.02642 13.3129 0 14.3826V29.6206C1.25972 30.9292 2.82401 31.9053 4.55307 32.4617C6.28214 33.0181 8.12212 33.1375 9.90859 32.8092C11.6951 32.4809 13.3724 31.7151 14.7906 30.5803C16.2089 29.4455 17.3239 27.9769 18.036 26.306C18.7482 24.635 19.0353 22.8137 18.8717 21.0047C18.708 19.1956 18.0988 17.4554 17.0984 15.9393C16.0979 14.4233 14.7375 13.1787 13.1387 12.3167C11.5398 11.4548 9.7523 11.0024 7.93591 11Z" fill="#FA0032"/>
</g>
</g>
<defs>
<clipPath id="clip0_21_1248">
<rect width="204.238" height="44" fill="white"/>
</clipPath>
<clipPath id="clip1_21_1248">
<rect width="204.238" height="22" fill="white" transform="translate(0 11)"/>
</clipPath>
</defs>
</svg>
